<svg xmlns="http://www.w3.org/2000/svg" width="20" height="17" viewBox="0 0 20 17">
  <g id="Group_22162" data-name="Group 22162" transform="translate(-979.425 -179)">
    <g id="user" transform="translate(979.425 184)">
      <g id="Group_47" data-name="Group 47" transform="translate(0)">
        <g id="Group_46" data-name="Group 46">
          <path id="Path_109" data-name="Path 109" d="M10.243,7.757a5.977,5.977,0,0,0-2.28-1.43,3.469,3.469,0,1,0-3.925,0A6.009,6.009,0,0,0,0,12H.937a5.062,5.062,0,1,1,10.125,0H12A5.961,5.961,0,0,0,10.243,7.757ZM6,6A2.531,2.531,0,1,1,8.531,3.469,2.534,2.534,0,0,1,6,6Z" transform="translate(0)" fill="#fff"/>
        </g>
      </g>
    </g>
    <g id="user-2" data-name="user" transform="translate(987.425 179)">
      <g id="Group_47-2" data-name="Group 47" transform="translate(0)">
        <g id="Group_46-2" data-name="Group 46">
          <path id="Path_109-2" data-name="Path 109" d="M10.243,7.757a5.977,5.977,0,0,0-2.28-1.43,3.469,3.469,0,1,0-3.925,0A6.009,6.009,0,0,0,0,12H.937a5.062,5.062,0,1,1,10.125,0H12A5.961,5.961,0,0,0,10.243,7.757ZM6,6A2.531,2.531,0,1,1,8.531,3.469,2.534,2.534,0,0,1,6,6Z" transform="translate(0)" fill="#fff"/>
        </g>
      </g>
    </g>
  </g>
</svg>
