<svg id="Group_8994" data-name="Group 8994" xmlns="http://www.w3.org/2000/svg" width="22.264" height="18.002" viewBox="0 0 22.264 18.002">
  <g id="business-card-of-a-man-with-contact-info" transform="translate(0 0)">
    <g id="Group_8988" data-name="Group 8988" transform="translate(0 0)">
      <path id="Path_6324" data-name="Path 6324" d="M12.874,15.45h-.542a.508.508,0,0,1-.509-.508.386.386,0,0,1,.116-.277,3.652,3.652,0,0,0,.772-1.162.218.218,0,0,0,.128.049c.3,0,.662-.672.662-1.13s-.043-.83-.347-.83a.469.469,0,0,0-.113.016c-.022-1.242-.335-2.792-2.232-2.792-1.979,0-2.21,1.547-2.232,2.788a.435.435,0,0,0-.082-.012c-.3,0-.346.372-.346.83s.357,1.13.662,1.13a.208.208,0,0,0,.105-.029,3.663,3.663,0,0,0,.763,1.144.384.384,0,0,1,.116.276.509.509,0,0,1-.509.509H8.744a2.1,2.1,0,0,0-2.1,2.1v.581a.662.662,0,0,0,.662.662h7a.662.662,0,0,0,.662-.662v-.581A2.1,2.1,0,0,0,12.874,15.45Z" transform="translate(-2.014 -4.802)" fill="#f7f7f7"/>
      <path id="Path_6325" data-name="Path 6325" d="M22.038,10.077h-5.87a4.316,4.316,0,0,1,.341,1.407.852.852,0,0,1,.3.353h5.233a.49.49,0,0,0,.491-.491v-.779A.491.491,0,0,0,22.038,10.077Z" transform="translate(-4.898 -5.184)" fill="#f7f7f7"/>
      <path id="Path_6326" data-name="Path 6326" d="M21.933,14.678H16.82a1.7,1.7,0,0,1-.954,1.219c-.014.026-.03.048-.045.074v.467h6.11a.491.491,0,0,0,.491-.491v-.778A.489.489,0,0,0,21.933,14.678Z" transform="translate(-4.793 -6.577)" fill="#f7f7f7"/>
      <path id="Path_6327" data-name="Path 6327" d="M22.854,19.279H18.863a2.679,2.679,0,0,1,.418,1.437v.323h3.573a.49.49,0,0,0,.491-.491V19.77A.49.49,0,0,0,22.854,19.279Z" transform="translate(-5.714 -7.971)" fill="#f7f7f7"/>
      <path id="Path_6328" data-name="Path 6328" d="M19.249,3.057H3.015A3.014,3.014,0,0,0,0,6.072V18.045a3.014,3.014,0,0,0,3.015,3.015H19.249a3.014,3.014,0,0,0,3.014-3.015V6.072A3.014,3.014,0,0,0,19.249,3.057Zm1.591,14.988a1.593,1.593,0,0,1-1.591,1.591H3.015a1.593,1.593,0,0,1-1.591-1.591V6.072A1.593,1.593,0,0,1,3.015,4.48H19.249a1.593,1.593,0,0,1,1.591,1.591V18.045Z" transform="translate(0 -3.057)" fill="#f7f7f7"/>
    </g>
  </g>
</svg>
