<svg xmlns="http://www.w3.org/2000/svg" width="10" height="12.381" viewBox="0 0 10 12.381">
  <path id="Icon_ionic-md-copy" data-name="Icon ionic-md-copy" d="M12.378,3.375H8.821A1.19,1.19,0,0,0,7.616,4.551V4.8H7.393A1.19,1.19,0,0,0,6.188,5.979v8.571a1.216,1.216,0,0,0,1.205,1.205h6.19a1.19,1.19,0,0,0,1.176-1.205v-.223h.253a1.19,1.19,0,0,0,1.176-1.205V7.185Zm0,1.327L14.86,7.185H12.378Zm1.429,9.848a.24.24,0,0,1-.223.253H7.393a.265.265,0,0,1-.253-.253V5.979a.24.24,0,0,1,.253-.223h.223v7.6a.845.845,0,0,0,.967.967h5.223Zm1.429-1.429a.24.24,0,0,1-.223.253H8.821a.265.265,0,0,1-.253-.253V4.551a.24.24,0,0,1,.253-.223h2.6v3.81h3.81Z" transform="translate(-6.188 -3.375)"/>
</svg>
