<svg xmlns="http://www.w3.org/2000/svg" width="19.446" height="19.888" viewBox="0 0 19.446 19.888">
  <path id="Union_36" data-name="Union 36" d="M1.782,19.888A1.793,1.793,0,0,1,0,18.095V4A1.792,1.792,0,0,1,1.73,2.214V4.62A1.964,1.964,0,0,0,3.7,6.583H4.942A1.973,1.973,0,0,0,6.923,4.62V2.2h5.6V4.62A1.973,1.973,0,0,0,14.5,6.583h1.242a1.964,1.964,0,0,0,1.97-1.963V2.214A1.792,1.792,0,0,1,19.446,4v14.1a1.8,1.8,0,0,1-1.782,1.793Zm.491-9.955v7.284a.773.773,0,0,0,.773.771H16.367a.772.772,0,0,0,.771-.771V9.933a.77.77,0,0,0-.771-.769H3.046A.771.771,0,0,0,2.273,9.933Zm10.6,7a.45.45,0,0,1-.451-.45V14.908a.45.45,0,0,1,.451-.45h1.578a.451.451,0,0,1,.45.45v1.576a.451.451,0,0,1-.45.45Zm-3.935,0a.451.451,0,0,1-.452-.45V14.908a.451.451,0,0,1,.452-.45H10.51a.452.452,0,0,1,.452.45v1.576a.452.452,0,0,1-.452.45ZM5,16.934a.45.45,0,0,1-.451-.45V14.908A.45.45,0,0,1,5,14.458H6.575a.451.451,0,0,1,.451.45v1.576a.451.451,0,0,1-.451.45ZM12.872,13a.45.45,0,0,1-.451-.45V10.972a.45.45,0,0,1,.451-.45h1.576a.451.451,0,0,1,.452.45v1.576a.451.451,0,0,1-.452.45ZM8.936,13a.451.451,0,0,1-.452-.45V10.972a.451.451,0,0,1,.452-.45H10.51a.452.452,0,0,1,.452.45v1.576a.452.452,0,0,1-.452.45ZM5,13a.45.45,0,0,1-.451-.45V10.972A.45.45,0,0,1,5,10.521H6.575a.451.451,0,0,1,.451.45v1.576a.451.451,0,0,1-.451.45Zm9.489-7.7a.673.673,0,0,1-.675-.673V.676A.675.675,0,0,1,14.488,0h1.228a.676.676,0,0,1,.675.676V4.62a.674.674,0,0,1-.675.673ZM3.7,5.293a.674.674,0,0,1-.674-.673V.676A.675.675,0,0,1,3.7,0h1.23A.676.676,0,0,1,5.6.676V4.62a.674.674,0,0,1-.676.673Z" fill="#717171"/>
</svg>
