<svg xmlns="http://www.w3.org/2000/svg" width="14" height="9.102" viewBox="0 0 14 9.102">
  <g id="envelope" transform="translate(0 -59.882)">
    <path id="Path_79" data-name="Path 79" d="M12.687,59.882H1.312A1.236,1.236,0,0,0,0,61.02v6.826a1.236,1.236,0,0,0,1.313,1.138H12.687A1.236,1.236,0,0,0,14,67.846V61.02A1.236,1.236,0,0,0,12.687,59.882Zm0,.758a.493.493,0,0,1,.168.029L7,65.069l-5.855-4.4a.494.494,0,0,1,.168-.029Zm0,7.585H1.312a.412.412,0,0,1-.438-.379V61.471l5.838,4.386a.49.49,0,0,0,.573,0l5.838-4.386v6.375A.412.412,0,0,1,12.687,68.225Z" transform="translate(0 0)" fill="#8c9db1"/>
  </g>
</svg>
