<svg xmlns="http://www.w3.org/2000/svg" width="5.999" height="8.001" viewBox="0 0 5.999 8.001">
  <g id="Group_22597" data-name="Group 22597" transform="translate(-4726 323)">
    <ellipse id="Op_component_1" data-name="Op component 1" cx="1.76" cy="1.7" rx="1.76" ry="1.7" transform="translate(4727.24 -323)" fill="#01ac01"/>
    <path id="Op_component_2" data-name="Op component 2" d="M75.746,382.516H74.253A2.219,2.219,0,0,0,72,384.693v1.765l0,.028.126.038a10.583,10.583,0,0,0,3.063.477,6.481,6.481,0,0,0,2.675-.485l.118-.058H78v-1.765A2.218,2.218,0,0,0,75.746,382.516Zm-.4,3.425-.322.456a.023.023,0,0,1-.019.01h0a.023.023,0,0,1-.019-.01l-.3-.456a.022.022,0,0,1,0-.013l.15-2.213a.022.022,0,0,1,.023-.021h.311a.023.023,0,0,1,.023.021l.161,2.212A.022.022,0,0,1,75.347,385.941Zm-.146-2.314h-.369l-.321-.641a.113.113,0,0,1,.115-.111H75.4a.113.113,0,0,1,.115.111Z" transform="translate(4654 -702)" fill="#01ac01"/>
  </g>
</svg>
