<svg xmlns="http://www.w3.org/2000/svg" width="9" height="9.002" viewBox="0 0 9 9.002">
  <path id="Forma_1" data-name="Forma 1" d="M73.125,397.4v-1.125a.281.281,0,0,1,.563,0V397.4a.281.281,0,1,1-.562,0Zm4.781.281a.281.281,0,0,0,.281-.281v-1.125a.281.281,0,0,0-.563,0V397.4A.281.281,0,0,0,77.906,397.686ZM81,402.749a2.25,2.25,0,1,1-2.25-2.251A2.25,2.25,0,0,1,81,402.749Zm-.563,0a1.688,1.688,0,1,0-1.687,1.688A1.689,1.689,0,0,0,80.437,402.749Zm-6.187-3.376H73.125V400.5H74.25Zm-1.125,2.813H74.25v-1.125H73.125Zm1.687-1.688h1.125v-1.125H74.812Zm0,1.688h1.125v-1.125H74.812Zm-2.25.507v-3.882H78.75v1.125h.562v-2.194a.614.614,0,0,0-.609-.618h-.235v.281a.563.563,0,0,1-1.125,0v-.281H73.968v.281a.563.563,0,0,1-1.125,0v-.281h-.234a.614.614,0,0,0-.61.618v4.952a.615.615,0,0,0,.61.619h3.328v-.562H72.609A.053.053,0,0,1,72.562,402.693Zm5.062-2.194v-1.125H76.5V400.5Zm1.969,2.251H78.75v-.844a.281.281,0,1,0-.562,0v1.125a.281.281,0,0,0,.281.281h1.125a.281.281,0,0,0,0-.562Z" transform="translate(-72 -395.998)" fill="#01ac01"/>
</svg>
