<svg id="upload" xmlns="http://www.w3.org/2000/svg" width="38.981" height="27.842" viewBox="0 0 38.981 27.842">
  <path id="Path_343" data-name="Path 343" d="M31.855,11.717c0-.116.017-.232.017-.348C31.872,5.085,27.365,0,21.805,0A10.038,10.038,0,0,0,12.73,6.477,4.744,4.744,0,0,0,10.4,5.849a5.426,5.426,0,0,0-5.116,4.882A8.755,8.755,0,0,0,0,19.045c0,4.853,3.489,8.8,7.788,8.8h8.919V20.108H12.512l6.978-8.091L26.469,20.1H22.275v7.734h9.6c3.933,0,7.109-3.625,7.109-8.062S35.788,11.726,31.855,11.717Z" transform="translate(0 0)" fill="#43425d" opacity="0.1"/>
</svg>
