<svg id="user-silhouette_1_" data-name="user-silhouette (1)" xmlns="http://www.w3.org/2000/svg" width="15.206" height="15" viewBox="0 0 15.206 15">
  <g id="Group_12988" data-name="Group 12988">
    <path id="Path_6891" data-name="Path 6891" d="M116.453,10.15c1.847,0,3-1.838,3-4,0-3-1.153-4-3-4a3.732,3.732,0,0,0-4,4A4.292,4.292,0,0,0,116.453,10.15Z" transform="translate(-108.35 -2.15)" fill="#a9a9a9"/>
    <path id="Path_6892" data-name="Path 6892" d="M14.723,226.635l-2-3c-.077-.174.169-.912,0-1l-3-1c-.058-.03.052-.039,0,0-.741.56-1.093,1-2,1a5.818,5.818,0,0,1-3-1c-.052-.039.058-.03,0,0l-3,1c-.169.088.077.826,0,1l-2,3a1.274,1.274,0,0,0,0,1c.156.24.713,1,1,1h13c.287,0,.844-.76,1-1A1.274,1.274,0,0,0,14.723,226.635Z" transform="translate(0.38 -213.635)" fill="#a9a9a9"/>
  </g>
</svg>
